<svg xmlns="http://www.w3.org/2000/svg" viewBox="0 0 394.91 79.1"><g id="Layer_2" data-name="Layer 2"><g id="Layer_1-2" data-name="Layer 1"><path d="M29.5,6.14V53.46H51.68V77.81H0V6.14Z"/><path d="M102.86,78.9c-5.64,0-11-1.28-14.36-4.35A23.64,23.64,0,0,1,74.84,78.9c-11.68,0-19.6-6.33-19.6-16.33,0-11,9.11-16.83,23.37-16.83a51.25,51.25,0,0,1,7.62.59c0-3.17-3-4.35-9.61-4.35A53.4,53.4,0,0,0,59.4,44.85V27c4.65-2,13.27-4,22.27-4C98,23.07,110,28.61,110,44.75V55.34c0,1.78,1.09,2.67,3,2.67a8.41,8.41,0,0,0,1.88-.19v19A32.05,32.05,0,0,1,102.86,78.9ZM86.13,57.22a11.27,11.27,0,0,0-2.57-.3c-3,0-5,1.19-5,3.67s1.58,3.76,4.55,3.76a7.23,7.23,0,0,0,3-.5Z"/><path d="M178.89,6.14V53.46h22.18V77.81H149.39V6.14Z"/><path d="M233.54,77.81H207.4V24.25a80.51,80.51,0,0,0,13.07,1.09,80.41,80.41,0,0,0,13.07-1.09ZM208,11.38C208,5,213.15,0,220.47,0s12.47,5,12.47,11.38-5.14,11.39-12.47,11.39S208,17.82,208,11.38Z"/><path d="M262.25,63.06c1.88,0,2.67-.59,2.67-1.58,0-1.19-1.09-1.68-3.17-2-6.23-.89-12.57-2.38-16.63-5.25s-6-6.83-6-12.17c0-12.08,9.51-18.91,24.65-18.91a60.36,60.36,0,0,1,22.48,4.55V44.65c-8.42-3.86-16.64-5.25-20.2-5.25-2,0-2.67.6-2.67,1.49,0,1.38,1.38,1.68,3.86,2.08,4.95.79,10.89,1.88,15.54,4.85,4.36,2.77,6.44,6.93,6.44,12.37,0,12.08-9.81,18.81-25.25,18.81-7,0-17.13-1.29-24-4.26v-18C248.69,61.38,258.59,63.06,262.25,63.06Z"/><path d="M322.44,45.24v7.43c0,3.36,1.68,5.54,5.35,5.54a17.29,17.29,0,0,0,4.15-.59v19.2a39.91,39.91,0,0,1-13,2.28c-15.25,0-22.58-7.82-22.58-22.47V45.24h-6V24.35h6v-9.6l26-10.89V24.35h9.5V45.24Z"/><path d="M382.93,78.9c-5.65,0-11-1.28-14.36-4.35a23.64,23.64,0,0,1-13.66,4.35c-11.68,0-19.6-6.33-19.6-16.33,0-11,9.11-16.83,23.36-16.83a51.05,51.05,0,0,1,7.62.59c0-3.17-3-4.35-9.6-4.35a53.35,53.35,0,0,0-17.22,2.87V27c4.65-2,13.26-4,22.27-4,16.34,0,28.31,5.54,28.31,21.68V55.34c0,1.78,1.09,2.67,3,2.67a8.45,8.45,0,0,0,1.89-.19v19A32.05,32.05,0,0,1,382.93,78.9ZM366.2,57.22a11.42,11.42,0,0,0-2.58-.3c-3,0-4.95,1.19-4.95,3.67s1.59,3.76,4.56,3.76a7.3,7.3,0,0,0,3-.5Z"/></g></g></svg>