<svg xmlns="http://www.w3.org/2000/svg" viewBox="0 0 398.57 384.86"><defs><style>.cls-1{fill:#fff;}</style></defs><g id="Layer_2" data-name="Layer 2"><g id="Layer_1-2" data-name="Layer 1"><path class="cls-1" d="M398.07,84.49C392.71,87.21,387.66,89,383.42,92c-16.51,11.65-28.86,25.64-28.38,47.82.58,26.65.16,53.32.14,80,0,26,.39,52-.26,78-.7,27.6-24.54,43.53-45.23,43.5q-109.23-.1-218.47,0a61.73,61.73,0,0,1-12.38-1c-24.56-5-35.5-29-35.41-47.23.25-52.49.23-105,.49-157.47.09-18-.05-36,1.34-53.9C46.24,69,52.31,58.46,64,51.54c11.82-7,24.54-8.51,37.88-8.55,50.15-.13,100.3-.56,150.45-.69,5,0,8.33-2.19,11.5-5.58,8.05-8.62,16.27-17.08,24.33-25.7,2.66-2.84,5-6,7.51-9a10.34,10.34,0,0,0-5.4-1.5Q184.51.28,78.78,0A66.46,66.46,0,0,0,48.41,6.93C17.68,22.34,1.28,47.74.35,81.83c-.91,33.45.22,67,.31,100.45C.77,224.43.13,266.6.93,308.74c.8,42.8,38.08,73.48,74.63,75.66,14.77.88,29.64.25,44.46.23,66.83-.08,133.65.09,200.47-.46,19.65-.16,36.81-8,50.64-22.32,3.68-3.82,6.83-8.14,10.42-12.05,7.27-7.9,12.81-16.93,14.37-27.5a241.59,241.59,0,0,0,2.64-34.72c.07-55-.3-110-.48-165C398,110.3,398.07,98,398.07,84.49ZM233.84,68.71c-2.33-.25-3.55-.49-4.77-.5-26.31-.24-52.61-.58-78.92-.63-21.65,0-43.29.36-64.93.36-5.38,0-9.13,2.55-12.48,6.17-4.2,4.53-3,9.19,2.88,11a25.34,25.34,0,0,0,7.4.73c4.66,0,9.31-.49,14-.5q57.21-.07,114.41-.09c1.6,0,3.63,0,4.7-.87C221.88,79.54,227.41,74.43,233.84,68.71ZM155.51,317.38c4.84-.33,8.56-.81,12.28-.8,35.79.13,71.59.39,107.38.48,14.15,0,28.31,0,42.44-.58,3.06-.13,6.59-2.29,8.87-4.56,3.66-3.66,1.14-9.66-4-10.59a23,23,0,0,0-4-.1q-72.67-.18-145.36-.32c-1.27,0-3,0-3.73.8C164.88,306.52,160.63,311.54,155.51,317.38Zm27.69-28.81c6.77.6,13.13,1.6,19.49,1.65,29.14.2,58.29.14,87.44.16,10.32,0,20.65-.07,31,0,3.68.05,6.66-1.58,7.2-4.82.42-2.51-.51-6.34-2.3-7.87a15.75,15.75,0,0,0-9.38-3.34C291,274,265.33,274,239.68,274c-13.47,0-26.93.15-40.4.33-1.39,0-3.19.33-4.08,1.22C191.36,279.41,187.78,283.54,183.2,288.57Zm16.91-187.41c-1.64-5.9-6.31-4.73-10-4.78q-51.7-.6-103.42-.87a63.66,63.66,0,0,0-9.45.71c-3.54.52-8.08,5.22-7.58,8.25.67,4.12,3.46,6.64,7.74,7.16a52,52,0,0,0,6,.48c28.64.1,57.29-.06,85.94.36,10.66.16,20.6-.4,28-9.41A13.1,13.1,0,0,1,200.11,101.16Zm7.43,162.51h7.68c23.31.1,46.61.26,69.91.29,12.31,0,24.62,0,36.92-.41a8.11,8.11,0,0,0,5.57-3.25c4.13-6.17-.26-12-9.19-12q-47.21-.13-94.39,0c-1.43,0-3.39.06-4.19.93C215.93,253.46,212.33,258,207.54,263.67ZM175.29,125c-2.87-.73-4.88-1.65-6.9-1.68q-44.91-.63-89.81-1c-4.09,0-8.87,4.05-8.43,8.2.3,2.82,3.21,5.58,5.45,7.89.9.93,3.12.79,4.74.78,25.28-.16,50.57-.49,75.85-.5,4,0,7.49,0,10.23-3.23S171.93,129,175.29,125Zm58.34,111.87c2.51.22,4.22.49,5.94.51q36.65.44,73.3.81a60,60,0,0,0,7.47-.27c5.23-.62,9.17-4.89,8.65-9.14-.47-3.86-4.57-6.54-9.84-6.53-23.09,0-46.18,0-69.27.06-1.4,0-3.28.1-4.11,1C241.79,227.4,238.1,231.81,233.63,236.88Zm-82.71-85.16a19.34,19.34,0,0,0-2.82-.48c-21.82-.37-43.64-.75-65.47-1-2.28,0-5.21,0-6.71,1.28-2.43,2.11-3.91,5.3-5.79,8,2.44,1.65,4.8,3.43,7.35,4.89.92.53,2.28.39,3.44.4,17.65.2,35.31.46,53,.49C139.81,165.34,148.55,158.22,150.92,151.72ZM260.06,210.3a23.51,23.51,0,0,0,4.21.89c19.46.11,38.93.23,58.39.15,4.63,0,7.48-5,5.8-9.26-1.83-4.63-5.22-6.53-10.12-6.44-14.47.26-28.94.38-43.41.59-.93,0-2.2,0-2.73.61C268.28,201,264.52,205.32,260.06,210.3ZM132.14,317l.86-2.13c-4.26-4.46-8.45-9-12.83-13.32-.69-.69-2.19-.81-3.32-.8-13.28.09-26.57.13-39.85.47-5.37.14-7.62,5.22-5,9.84,2.49,4.46,6.17,6.26,11,6.2,9-.09,17.95-.2,26.93-.25C117.34,317,124.74,317,132.14,317Zm154.15-131.7c13.11,0,25.49.28,37.85-.16,4.29-.16,5.83-4.08,4.27-8.22-1.35-3.56-3.61-6-7.68-6q-11,.08-22,.34a3.11,3.11,0,0,0-2.17.83C293.32,176.17,290.17,180.31,286.29,185.32ZM109.65,289c-5.12-5.37-9.41-9.94-13.8-14.4a4.15,4.15,0,0,0-2.7-1.12c-5.65.09-11.48-.47-16.84.85-2.85.7-6.73,4.71-6.76,7.27s3.81,6.84,6.57,7.43C86.87,291.32,97.83,290.49,109.65,289Zm218-144.18L310.71,160c4.64,0,8.94.24,13.19-.13,1.46-.13,3.9-1.7,4-2.75A109.62,109.62,0,0,0,327.63,144.82ZM69.78,262.4H88.17L72.81,248.68C71.8,253.25,70.89,257.39,69.78,262.4Z"/><path d="M398.07,84.49c0,13.49,0,25.81,0,38.12.18,55,.55,110,.48,165a241.59,241.59,0,0,1-2.64,34.72c-1.56,10.57-7.1,19.6-14.37,27.5-3.59,3.91-6.74,8.23-10.42,12.05-13.83,14.29-31,22.16-50.64,22.32-66.82.55-133.64.38-200.47.46-14.82,0-29.69.65-44.46-.23C39,382.22,1.73,351.54.93,308.74.13,266.6.77,224.43.66,182.28c-.09-33.49-1.22-67-.31-100.45.93-34.09,17.33-59.49,48.06-74.9A66.46,66.46,0,0,1,78.78,0Q184.52.36,290.24.55a10.34,10.34,0,0,1,5.4,1.5c-2.49,3-4.85,6.13-7.51,9-8.06,8.62-16.28,17.08-24.33,25.7-3.17,3.39-6.46,5.57-11.5,5.58-50.15.13-100.3.56-150.45.69C88.51,43,75.79,44.52,64,51.54,52.31,58.46,46.24,69,45.26,81.71c-1.39,17.9-1.25,35.93-1.34,53.9-.26,52.49-.24,105-.49,157.47-.09,18.25,10.85,42.19,35.41,47.23a61.73,61.73,0,0,0,12.38,1q109.25,0,218.47,0c20.69,0,44.53-15.9,45.23-43.5.65-26,.24-52,.26-78,0-26.66.44-53.33-.14-80-.48-22.18,11.87-36.17,28.38-47.82C387.66,89,392.71,87.21,398.07,84.49Z"/><path d="M109.67,177.45l31.71,27.48c6.16-6.49,11.87-12.67,17.75-18.69,25.73-26.29,51.62-52.44,77.26-78.83,25.86-26.63,51.45-53.53,77.27-80.21C323,17.51,327,13.94,336.46,4.32c2.43-2.47,1.61-1.34,4.3-3.8,8.43.82,25.68.08,36.9,7.18,4.16,2.69,14.63,14.14,19.67,28.48-3.93,3.22-11.57,9-14.57,12q-45.58,44.75-91,89.63c-14.76,14.58-29.32,29.36-44.09,43.94-17.38,17.15-35,34.08-52.31,51.31-15,14.95-29.83,30.12-44.62,45.31-4.77,4.9-5.64,5.41-10.44.71-14.14-13.86-28-28-42-42C91.67,230.47,85,224,78.35,217.43A28,28,0,0,1,75.4,214c-4-5.49-3.45-6.21,1.91-10.11,7.76-5.64,15.13-11.82,22.58-17.87C103.22,183.36,106.33,180.4,109.67,177.45Z"/><path d="M233.84,68.71c-6.43,5.72-12,10.83-17.74,15.64-1.07.9-3.1.87-4.7.87q-57.19.07-114.41.09c-4.66,0-9.31.46-14,.5a25.34,25.34,0,0,1-7.4-.73c-5.92-1.78-7.08-6.44-2.88-11,3.35-3.62,7.1-6.17,12.48-6.17,21.64,0,43.28-.4,64.93-.36,26.31,0,52.61.39,78.92.63C230.29,68.22,231.51,68.46,233.84,68.71Z"/><path d="M155.51,317.38c5.12-5.84,9.37-10.86,13.85-15.67.72-.76,2.46-.8,3.73-.8q72.67.12,145.36.32a23,23,0,0,1,4,.1c5.18.93,7.7,6.93,4,10.59-2.28,2.27-5.81,4.43-8.87,4.56-14.13.6-28.29.62-42.44.58-35.79-.09-71.59-.35-107.38-.48C164.07,316.57,160.35,317.05,155.51,317.38Z"/><path d="M183.2,288.57c4.58-5,8.16-9.16,12-13,.89-.89,2.69-1.2,4.08-1.22,13.47-.18,26.93-.34,40.4-.33,25.65,0,51.3.05,76.94.4a15.75,15.75,0,0,1,9.38,3.34c1.79,1.53,2.72,5.36,2.3,7.87-.54,3.24-3.52,4.87-7.2,4.82-10.32-.11-20.65,0-31,0-29.15,0-58.3,0-87.44-.16C196.33,290.17,190,289.17,183.2,288.57Z"/><path d="M200.11,101.16a13.1,13.1,0,0,0-2.78,1.9c-7.39,9-17.33,9.57-28,9.41-28.65-.42-57.3-.26-85.94-.36a52,52,0,0,1-6-.48c-4.28-.52-7.07-3-7.74-7.16-.5-3,4-7.73,7.58-8.25a63.66,63.66,0,0,1,9.45-.71q51.72.33,103.42.87C193.8,96.43,198.47,95.26,200.11,101.16Z"/><path d="M207.54,263.67c4.79-5.69,8.39-10.21,12.31-14.44.8-.87,2.76-.93,4.19-.93q47.19-.06,94.39,0c8.93,0,13.32,5.82,9.19,12a8.11,8.11,0,0,1-5.57,3.25c-12.3.38-24.61.43-36.92.41-23.3,0-46.6-.19-69.91-.29Z"/><path d="M175.29,125c-3.36,4-6.1,7.23-8.87,10.45s-6.27,3.23-10.23,3.23c-25.28,0-50.57.34-75.85.5-1.62,0-3.84.15-4.74-.78-2.24-2.31-5.15-5.07-5.45-7.89-.44-4.15,4.34-8.23,8.43-8.2q44.91.38,89.81,1C170.41,123.36,172.42,124.28,175.29,125Z"/><path d="M233.63,236.88c4.47-5.07,8.16-9.48,12.14-13.6.83-.86,2.71-1,4.11-1,23.09-.06,46.18,0,69.27-.06,5.27,0,9.37,2.67,9.84,6.53.52,4.25-3.42,8.52-8.65,9.14a60,60,0,0,1-7.47.27q-36.64-.37-73.3-.81C237.85,237.37,236.14,237.1,233.63,236.88Z"/><path d="M150.92,151.72c-2.37,6.5-11.11,13.62-17,13.6-17.65,0-35.31-.29-53-.49-1.16,0-2.52.13-3.44-.4-2.55-1.46-4.91-3.24-7.35-4.89,1.88-2.73,3.36-5.92,5.79-8,1.5-1.3,4.43-1.31,6.71-1.28,21.83.26,43.65.64,65.47,1A19.34,19.34,0,0,1,150.92,151.72Z"/><path d="M260.06,210.3c4.46-5,8.22-9.29,12.14-13.46.53-.57,1.8-.6,2.73-.61,14.47-.21,28.94-.33,43.41-.59,4.9-.09,8.29,1.81,10.12,6.44,1.68,4.24-1.17,9.24-5.8,9.26-19.46.08-38.93,0-58.39-.15A23.51,23.51,0,0,1,260.06,210.3Z"/><path d="M132.14,317c-7.4,0-14.8,0-22.2,0-9,.05-18,.16-26.93.25-4.87.06-8.55-1.74-11-6.2-2.59-4.62-.34-9.7,5-9.84,13.28-.34,26.57-.38,39.85-.47,1.13,0,2.63.11,3.32.8,4.38,4.34,8.57,8.86,12.83,13.32Z"/><path d="M286.29,185.32c3.88-5,7-9.15,10.3-13.21a3.11,3.11,0,0,1,2.17-.83q11-.25,22-.34c4.07,0,6.33,2.44,7.68,6,1.56,4.14,0,8.06-4.27,8.22C311.78,185.6,299.4,185.32,286.29,185.32Z"/><path d="M109.65,289c-11.82,1.49-22.78,2.32-33.53,0-2.76-.59-6.6-4.88-6.57-7.43s3.91-6.57,6.76-7.27c5.36-1.32,11.19-.76,16.84-.85a4.15,4.15,0,0,1,2.7,1.12C100.24,279.06,104.53,283.63,109.65,289Z"/><path d="M327.63,144.82a109.62,109.62,0,0,1,.24,12.33c-.07,1-2.51,2.62-4,2.75-4.25.37-8.55.13-13.19.13Z"/><path d="M69.78,262.4c1.11-5,2-9.15,3-13.72L88.17,262.4Z"/></g></g></svg>